<?xml version="1.0" standalone="no"?>
<!DOCTYPE svg PUBLIC "-//W3C//DTD SVG 20010904//EN"
 "http://www.w3.org/TR/2001/REC-SVG-20010904/DTD/svg10.dtd">
<svg version="1.0" xmlns="http://www.w3.org/2000/svg"
 width="1890.000000pt" height="1417.000000pt" viewBox="0 0 1890.000000 1417.000000"
 preserveAspectRatio="xMidYMid meet">

<g transform="translate(0.000000,1417.000000) scale(0.100000,-0.100000)"
fill="#000000" stroke="none">
<path d="M9880 13690 c-485 -88 -1060 -403 -1636 -895 -147 -124 -504 -477
-647 -638 -181 -203 -478 -570 -1016 -1257 -46 -59 -22 -36 82 80 167 188 380
357 577 459 280 144 498 154 653 30 l38 -30 106 101 c307 293 612 502 897 615
211 83 426 102 583 51 45 -15 111 -46 145 -69 79 -53 4537 -3575 4596 -3631
95 -90 158 -208 188 -356 21 -108 14 -311 -16 -455 -58 -274 -210 -634 -402
-952 l-49 -83 28 -25 c15 -13 31 -25 36 -25 20 -1 99 -129 119 -194 28 -89 30
-251 4 -371 -44 -204 -154 -459 -291 -675 -37 -58 -60 -98 -52 -90 32 32 638
805 757 965 280 374 500 726 684 1095 175 351 286 640 366 954 174 684 112
1179 -186 1493 -45 48 -4288 3411 -4694 3721 -99 76 -233 143 -345 173 -117
32 -379 36 -525 9z"/>
<path d="M7288 11276 c-7 -8 -29 -35 -48 -61 -19 -25 -51 -65 -70 -89 -19 -23
-48 -60 -65 -81 -16 -21 -43 -56 -60 -76 -16 -20 -52 -66 -80 -101 -27 -34
-54 -68 -60 -74 -5 -7 -26 -33 -45 -58 -19 -26 -48 -64 -65 -84 -16 -21 -43
-55 -60 -76 -16 -21 -63 -80 -103 -130 -41 -50 -83 -104 -95 -120 -12 -15 -38
-48 -57 -71 -19 -24 -51 -65 -70 -90 -19 -26 -44 -57 -55 -69 -11 -13 -38 -47
-60 -76 -22 -29 -66 -84 -97 -124 -32 -39 -73 -91 -92 -116 -20 -25 -61 -77
-93 -116 -32 -40 -74 -93 -93 -118 -19 -26 -62 -80 -95 -121 -33 -41 -76 -95
-95 -120 -19 -26 -45 -59 -57 -73 -30 -37 -86 -108 -128 -162 -20 -25 -61 -77
-93 -116 -31 -40 -75 -95 -97 -124 -22 -29 -49 -63 -60 -76 -11 -12 -36 -43
-55 -69 -19 -25 -52 -67 -73 -93 -55 -68 -64 -79 -152 -192 -44 -56 -105 -133
-135 -171 -30 -37 -71 -89 -90 -114 -19 -26 -44 -57 -55 -69 -11 -13 -38 -47
-60 -76 -22 -29 -53 -69 -70 -89 -16 -21 -43 -54 -60 -76 -16 -21 -43 -55 -60
-75 -16 -21 -48 -61 -70 -90 -22 -29 -45 -57 -50 -64 -6 -6 -33 -40 -60 -74
-28 -35 -76 -96 -107 -135 -32 -40 -71 -90 -88 -112 -17 -22 -56 -72 -88 -112
-31 -39 -77 -97 -102 -128 -25 -32 -70 -88 -100 -126 -30 -38 -71 -89 -90
-115 -19 -25 -60 -77 -90 -114 -50 -62 -83 -103 -147 -187 -12 -15 -56 -71
-98 -123 -41 -52 -81 -102 -88 -110 -7 -9 -30 -38 -52 -65 -46 -57 -87 -116
-83 -120 9 -7 324 -255 963 -760 826 -653 837 -662 1531 -1210 285 -225 564
-446 620 -490 109 -86 340 -269 684 -541 118 -94 539 -426 935 -739 396 -313
772 -610 835 -660 63 -50 274 -217 469 -371 195 -153 435 -343 534 -422 140
-111 182 -140 189 -129 4 8 24 34 43 58 19 24 44 55 55 69 11 14 36 46 57 72
21 26 56 70 78 99 22 28 47 59 55 69 8 10 33 41 55 69 22 29 57 73 78 99 21
26 46 58 57 72 11 14 34 44 52 67 18 22 55 70 83 105 27 34 52 65 55 68 5 5
47 59 90 116 29 39 170 216 250 314 30 37 71 89 90 114 19 26 60 78 90 115
122 151 226 283 247 312 12 16 34 45 50 63 15 19 39 49 53 67 14 18 39 49 55
70 17 20 52 66 80 101 27 34 54 68 60 74 5 7 26 33 45 59 19 25 51 65 70 89
19 23 49 60 65 81 17 21 44 56 60 76 36 44 127 160 137 174 4 6 25 31 45 57
32 40 66 83 140 178 6 8 27 34 45 56 18 23 78 99 133 169 55 70 125 158 155
195 30 37 71 89 90 114 19 26 60 77 90 115 30 37 75 94 100 126 25 32 70 89
100 126 30 37 71 88 90 113 19 26 60 78 90 115 30 38 73 92 95 121 22 29 49
63 60 76 11 12 38 46 60 74 22 29 54 69 70 90 17 20 44 54 60 75 17 22 44 55
60 76 17 20 48 60 70 89 22 29 49 63 60 76 11 12 36 43 55 69 37 48 75 97 125
160 17 20 44 54 60 75 17 20 55 69 85 109 30 39 58 71 63 71 22 0 0 40 -41 71
-26 20 -149 117 -273 215 -124 98 -426 337 -670 530 -244 193 -565 446 -714
564 -148 117 -302 239 -341 271 -64 51 -74 56 -94 46 -13 -7 -28 -21 -34 -32
-6 -11 -24 -36 -41 -56 -35 -42 -72 -88 -117 -146 -18 -22 -55 -70 -83 -105
-27 -34 -53 -67 -57 -73 -4 -5 -38 -46 -75 -90 -38 -44 -100 -120 -138 -169
-39 -48 -85 -107 -103 -130 -39 -49 -47 -58 -91 -114 l-34 -44 24 -22 c13 -13
314 -252 669 -531 855 -675 1032 -815 1049 -830 14 -14 4 -31 -72 -125 -15
-19 -37 -46 -47 -60 -11 -14 -34 -44 -52 -67 -18 -22 -55 -70 -83 -105 -27
-34 -52 -65 -55 -68 -7 -7 -60 -75 -85 -110 -11 -15 -59 -76 -108 -136 -48
-60 -108 -136 -134 -169 -26 -33 -50 -62 -53 -65 -3 -3 -16 -20 -29 -38 -13
-18 -29 -31 -36 -28 -9 3 -5924 4672 -6034 4762 -3 3 44 71 59 84 7 6 59 74
85 110 11 16 59 77 108 137 48 59 109 135 135 168 26 33 51 66 57 72 5 7 25
32 43 55 18 24 58 75 90 114 31 39 84 106 116 148 33 42 64 76 70 76 6 0 101
-71 211 -158 641 -509 1356 -1072 1377 -1086 24 -16 25 -15 64 33 21 27 55 70
74 96 19 25 52 67 73 92 45 53 115 145 137 178 22 33 59 81 100 131 19 24 51
64 70 89 19 26 44 57 55 69 11 13 38 47 60 76 59 78 102 131 130 164 14 16 25
34 25 40 -1 6 -56 54 -122 106 -67 52 -219 172 -337 266 -951 751 -1462 1154
-1465 1154 -3 0 -11 -6 -18 -14z m746 -5961 c1649 -1303 3001 -2376 3003
-2382 3 -7 -8 -28 -23 -47 -16 -18 -42 -50 -59 -71 -16 -21 -43 -55 -60 -75
-16 -21 -75 -95 -130 -165 -106 -135 -152 -193 -188 -237 -12 -14 -38 -47 -57
-73 -19 -25 -51 -66 -70 -89 -19 -24 -45 -56 -57 -72 -12 -16 -57 -72 -99
-124 -42 -52 -78 -100 -81 -107 -12 -29 -38 -20 -106 35 -40 32 -135 108 -212
168 -77 61 -239 188 -360 284 -337 266 -2314 1829 -2695 2130 -102 80 -338
267 -525 415 -187 148 -423 335 -525 415 -102 80 -338 267 -525 415 -187 148
-511 404 -720 568 -209 165 -384 303 -388 307 -11 10 2 35 45 87 18 23 51 64
73 93 22 29 45 57 50 64 6 6 33 40 60 74 28 35 64 81 80 101 17 21 41 52 55
70 26 33 47 61 135 172 57 73 51 65 150 189 42 52 86 108 98 123 90 117 99
126 117 114 9 -7 1366 -1078 3014 -2382z"/>
</g>
</svg>
